<svg t="1728391733774" class="icon" viewBox="0 0 1024 1024" version="1.1" xmlns="http://www.w3.org/2000/svg" p-id="894" width="16" height="16"><path d="M163.84 322.56c-40.96-40.96-40.96-112.64 5.12-153.6 20.48-20.48 51.2-35.84 81.92-35.84 30.72 0 56.32 10.24 76.8 30.72l204.8 204.8c40.96 40.96 40.96 112.64-5.12 158.72-15.36 15.36-15.36 46.08 0 61.44 10.24 10.24 20.48 15.36 30.72 15.36 10.24 0 25.6-5.12 30.72-15.36 76.8-76.8 81.92-204.8 5.12-281.6l-204.8-204.8C353.28 66.56 302.08 46.08 250.88 46.08h-5.12c-51.2 0-102.4 20.48-143.36 61.44C25.6 184.32 25.6 312.32 102.4 389.12l179.2 179.2c10.24 10.24 20.48 15.36 30.72 15.36 10.24 0 25.6-5.12 30.72-15.36 15.36-15.36 15.36-46.08 0-61.44L163.84 322.56z" p-id="895"></path><path d="M921.6 634.88l-179.2-179.2c-15.36-15.36-46.08-15.36-61.44 0-15.36 15.36-15.36 46.08 0 61.44l179.2 179.2c40.96 40.96 40.96 112.64-5.12 158.72-46.08 46.08-112.64 46.08-158.72 5.12l-204.8-204.8c-40.96-40.96-40.96-112.64 5.12-158.72 15.36-15.36 15.36-46.08 0-61.44-20.48-25.6-51.2-25.6-66.56-5.12-76.8 76.8-81.92 204.8-5.12 281.6l204.8 204.8C665.6 952.32 716.8 972.8 768 972.8c51.2 0 102.4-20.48 143.36-61.44 87.04-71.68 87.04-199.68 10.24-276.48z" p-id="896"></path></svg>